<?xml version="1.0" standalone="no"?>
<!DOCTYPE svg PUBLIC "-//W3C//DTD SVG 20010904//EN"
 "http://www.w3.org/TR/2001/REC-SVG-20010904/DTD/svg10.dtd">
<svg version="1.0" xmlns="http://www.w3.org/2000/svg"
 width="99.000000pt" height="99.000000pt" viewBox="0 0 99.000000 99.000000"
 preserveAspectRatio="xMidYMid meet">
<metadata>
Created by potrace 1.14, written by Peter Selinger 2001-2017
</metadata>
<g transform="translate(0.000000,99.000000) scale(0.100000,-0.100000)"
fill="#000000" stroke="none">
<path d="M282 891 c-74 -4 -126 -10 -130 -17 -4 -6 -22 -15 -40 -19 l-32 -7 0
-138 0 -138 45 -26 c25 -15 45 -33 45 -41 0 -7 9 -17 20 -20 30 -9 24 -25 -9
-25 -15 0 -49 -3 -75 -6 l-46 -7 0 -108 0 -108 37 -26 c22 -14 31 -25 21 -25
-35 0 -28 -42 16 -94 l25 -30 128 12 c133 13 331 33 538 54 105 11 120 15 124
32 2 11 -5 26 -15 33 -17 12 -17 14 2 27 52 39 -57 75 -128 42 -18 -8 -54 -18
-80 -22 l-48 -6 0 90 0 90 -47 23 c-42 20 -45 24 -24 27 13 2 26 12 28 23 3
10 14 19 24 19 17 0 19 8 19 78 0 44 -3 134 -7 200 l-6 122 -131 -2 c-72 -1
-186 -4 -254 -7z"/>
</g>
</svg>
